# xmcd
# Copyright (C) 1995-1998 Ti Kan
#
# Track frame offsets:
#       150
#       21932
#       35319
#       49368
#       65531
#       86025
#       102236
#       113528
#       131718
#
# Disc length: 1939 seconds
#
# Revision: 0
# Processed by: cddbd v1.5.2PL0 Copyright (c) Steve Scherf et al.
# Submitted via: CD-Import v1.0
#
DISCID=76079109
DTITLE=Anwar - Our Time
DYEAR=1900
DGENRE=
TTITLE0=Staraship Rider
TTITLE1=Monkey Stomp
TTITLE2=121
TTITLE3=Hindu Vision
TTITLE4=Our Time
TTITLE5=Energy
TTITLE6=Rainbow Warrior
TTITLE7=Winner
TTITLE8=S.u.y.h.
EXTD=
EXTT0=
EXTT1=
EXTT2=
EXTT3=
EXTT4=
EXTT5=
EXTT6=
EXTT7=
EXTT8=
PLAYORDER=
